<svg width="200" height="200" viewBox="0 0 200 200" fill="none" xmlns="http://www.w3.org/2000/svg">
  <rect width="200" height="200" rx="26" fill="#04060D"/>
  <rect x="6" y="6" width="188" height="188" rx="22" stroke="rgba(39,245,197,0.25)" stroke-width="2"/>
  <path d="M42 132H27V116.6L59.4 78H77V116H85V132H77V150H62.6V132H42ZM62 116V100.4L45.6 116H62Z" fill="#27F5C5"/>
  <path d="M104 150C87.6 150 76 137.8 76 117.6C76 96.8 88 84 106 84C122.6 84 134 95.6 134 114.2C134 117.4 133.8 119.8 133.4 122H96.4C97.4 129.4 102.8 133.4 110.2 133.4C114.8 133.4 118.6 131.4 121.6 128.4L133 136.6C127.8 145.2 118.6 150 104 150ZM96.6 107.2H118.2C117.6 101.2 113.6 98.4 106.2 98.4C99.8 98.4 97.2 101.6 96.6 107.2Z" fill="#E8EDFB"/>
  <path d="M145 134.6L161.2 108.2H145.6V94.4H180V107.2L162.8 133.4H181V148H145V134.6Z" fill="#F6C452"/>
  <circle cx="162" cy="48" r="10" fill="#27F5C5"/>
  <circle cx="44" cy="46" r="8" fill="#F6C452"/>
  <circle cx="104" cy="34" r="6" fill="#FF6B4A"/>
</svg>
